<?xml version="1.0" encoding="utf-8"?>
<!-- Generator: Adobe Illustrator 17.0.0, SVG Export Plug-In . SVG Version: 6.00 Build 0)  -->
<!DOCTYPE svg PUBLIC "-//W3C//DTD SVG 1.1//EN" "http://www.w3.org/Graphics/SVG/1.1/DTD/svg11.dtd">
<svg version="1.1" id="Layer_1" xmlns="http://www.w3.org/2000/svg" xmlns:xlink="http://www.w3.org/1999/xlink" x="0px" y="0px"
	 width="40px" height="40px" viewBox="0 0 40 40" enable-background="new 0 0 40 40" xml:space="preserve">
<g>
	<g>
		<path fill="#FFFFFF" d="M3.122,20.162l16.724,16.712l1.952-1.952L5.074,18.21L3.122,20.162z M22.102,5.07l-1.945-1.943
			L6.236,17.048l1.945,1.943L22.102,5.07z M23.544,6.519l-1.952,1.952l13.333,13.323l1.952-1.952L23.544,6.519z M9.626,20.437
			L22.959,33.76l1.952-1.952L11.578,18.485L9.626,20.437z M21.124,14.727l10.438,10.43l1.911-1.911L23.039,12.813L21.124,14.727z
			 M22.122,11.896l-1.978-1.978l-7.375,7.375l1.976,1.975L22.122,11.896z"/>
	</g>
</g>
</svg>
