<?xml version="1.0" encoding="utf-8"?>
<!-- Generator: Adobe Illustrator 17.0.0, SVG Export Plug-In . SVG Version: 6.00 Build 0)  -->
<!DOCTYPE svg PUBLIC "-//W3C//DTD SVG 1.1//EN" "http://www.w3.org/Graphics/SVG/1.1/DTD/svg11.dtd">
<svg version="1.1" id="Layer_1" xmlns="http://www.w3.org/2000/svg" xmlns:xlink="http://www.w3.org/1999/xlink" x="0px" y="0px"
	 width="141.667px" height="18px" viewBox="0 0 141.667 18" enable-background="new 0 0 141.667 18" xml:space="preserve">
<g>
	<g>
		<path fill="#FFFFFF" d="M12.635,2.667h-8.17c-0.164,0-0.299,0.166-0.299,0.362V15.35c0,0.166,0.134,0.302,0.299,0.302h1.747
			c0.164,0,0.284-0.136,0.284-0.302V5.037h4.092V15.35c0,0.166,0.134,0.302,0.284,0.302h1.763c0.149,0,0.284-0.136,0.284-0.302
			V3.029C12.919,2.833,12.785,2.667,12.635,2.667z M23.096,10.352h-0.986l-1.822-7.383l-0.015-0.076
			c-0.045-0.106-0.149-0.181-0.269-0.181h-1.956c-0.12,0-0.224,0.076-0.269,0.181l-0.015,0.091l-3.032,12.245
			c0,0.015,0,0.03-0.015,0.03v0.06c0,0.181,0.134,0.317,0.284,0.317h1.807c0.12,0,0.239-0.091,0.269-0.211
			c0-0.015,0.015-0.03,0.015-0.03l0.657-2.703h2.554l0.657,2.688l0.015,0.045c0.045,0.121,0.149,0.211,0.269,0.211h1.807
			c0.164,0,0.284-0.136,0.284-0.317v-0.03l-0.015-0.076l-0.627-2.521h0.403c0.164,0,0.299-0.121,0.299-0.287v-1.767
			C23.395,10.473,23.261,10.352,23.096,10.352z M18.332,10.352l0.702-2.793l0.687,2.793H18.332z M32.945,3.769
			c-0.881-0.71-2.091-1.087-3.51-1.087h-4.078c-0.164,0-0.299,0.136-0.299,0.302v1.208l2.3,3.79h-2.3v7.368
			c0,0.166,0.134,0.302,0.299,0.302h1.747c0.164,0,0.284-0.136,0.284-0.302v-4.998h2.076c1.404-0.015,2.614-0.377,3.48-1.087
			c0.881-0.71,1.374-1.706,1.374-2.748C34.319,5.46,33.826,4.463,32.945,3.769z M30.063,7.951l-1.748-2.914h1.12
			c1.673,0,2.554,0.74,2.554,1.48C31.989,7.151,31.332,7.785,30.063,7.951z M44.161,15.138l-3.749-5.345l3.644-6.628l0.03-0.045
			c0.015-0.045,0.03-0.091,0.03-0.136c0-0.166-0.134-0.302-0.299-0.302H41.83c-0.119,0-0.209,0.06-0.269,0.166l-2.36,4.303
			l-1.18-4.258c-0.03-0.121-0.149-0.211-0.269-0.211h-1.822c-0.164,0-0.299,0.136-0.299,0.302v0.03l0.03,0.121l1.344,4.847h-1.374
			v7.368c0,0.166,0.134,0.302,0.299,0.302h1.747c0.164,0,0.284-0.136,0.284-0.302v-4.967l3.615,5.134l0.015,0.03
			c0.06,0.076,0.134,0.106,0.224,0.106h2.136c0.164,0,0.284-0.136,0.284-0.302c0-0.06-0.015-0.121-0.03-0.166L44.161,15.138z
			 M54.133,13.296h-6.139v-2.944h5.541c0.164,0,0.299-0.136,0.299-0.302V8.283c0-0.166-0.134-0.287-0.299-0.287h-5.541V5.037h5.84
			c0.164,0,0.299-0.121,0.299-0.287V2.984c0-0.166-0.134-0.302-0.299-0.302h-7.871c-0.164,0-0.299,0.136-0.299,0.302v12.381
			c0,0.166,0.134,0.302,0.299,0.302h8.17c0.149,0,0.284-0.136,0.284-0.302v-1.766C54.417,13.432,54.283,13.296,54.133,13.296z
			 M63.916,2.682h-8.095c-0.164,0-0.299,0.121-0.299,0.287v1.766c0,0.166,0.134,0.302,0.299,0.302h2.913v10.252
			c0,0.196,0.134,0.362,0.284,0.362h1.762c0.149,0,0.284-0.166,0.284-0.362V5.037h2.853c0.194,0,0.358-0.136,0.358-0.302V2.969
			C64.275,2.802,64.111,2.682,63.916,2.682z M91.604,3.769c-0.881-0.71-2.091-1.087-3.51-1.087h-4.077
			c-0.164,0-0.299,0.136-0.299,0.302v1.208l2.3,3.79h-2.3v7.368c0,0.166,0.134,0.302,0.299,0.302h1.747
			c0.164,0,0.284-0.136,0.284-0.302v-4.998h2.076c1.404-0.015,2.614-0.377,3.48-1.087c0.881-0.71,1.374-1.706,1.374-2.748
			C92.978,5.46,92.485,4.463,91.604,3.769z M88.721,7.951l-1.748-2.914h1.12c1.673,0,2.554,0.74,2.554,1.48
			C90.648,7.151,89.991,7.785,88.721,7.951z M100.446,2.682c-3.54,0-6.422,2.914-6.422,6.492c0,3.578,2.883,6.493,6.422,6.493
			s6.422-2.914,6.422-6.493C106.868,5.596,103.985,2.682,100.446,2.682z M100.446,13.296c-2.255,0-4.093-1.842-4.093-4.122
			c0-2.28,1.837-4.137,4.093-4.137s4.078,1.857,4.078,4.137C104.523,11.454,102.701,13.296,100.446,13.296z M117.01,15.138
			l-3.749-5.345l3.644-6.628l0.03-0.045c0.015-0.045,0.03-0.091,0.03-0.136c0-0.166-0.134-0.302-0.299-0.302h-1.986
			c-0.12,0-0.209,0.06-0.269,0.166l-2.36,4.303l-1.18-4.258c-0.03-0.121-0.149-0.211-0.269-0.211h-1.822
			c-0.164,0-0.299,0.136-0.299,0.302v0.03l0.03,0.121l1.344,4.847h-1.374v7.368c0,0.166,0.134,0.302,0.299,0.302h1.747
			c0.164,0,0.284-0.136,0.284-0.302v-4.967l3.615,5.134l0.015,0.03c0.06,0.076,0.134,0.106,0.224,0.106h2.136
			c0.164,0,0.284-0.136,0.284-0.302c0-0.06-0.015-0.121-0.03-0.166L117.01,15.138z M126.983,13.296h-6.139v-2.944h5.541
			c0.164,0,0.299-0.136,0.299-0.302V8.283c0-0.166-0.135-0.287-0.299-0.287h-5.541V5.037h5.84c0.164,0,0.299-0.121,0.299-0.287
			V2.984c0-0.166-0.134-0.302-0.299-0.302h-7.871c-0.164,0-0.299,0.136-0.299,0.302v12.381c0,0.166,0.134,0.302,0.299,0.302h8.17
			c0.149,0,0.284-0.136,0.284-0.302v-1.766C127.266,13.432,127.132,13.296,126.983,13.296z M136.793,3.769
			c-0.881-0.71-2.091-1.087-3.51-1.087h-4.077c-0.164,0-0.299,0.136-0.299,0.302v1.208l2.3,3.79h-2.3v7.368
			c0,0.166,0.134,0.302,0.299,0.302h1.747c0.164,0,0.284-0.136,0.284-0.302v-4.998h2.076c1.404-0.015,2.614-0.377,3.48-1.087
			c0.881-0.71,1.374-1.706,1.374-2.748C138.167,5.46,137.674,4.463,136.793,3.769z M133.91,7.951l-1.748-2.914h1.12
			c1.673,0,2.554,0.74,2.554,1.48C135.837,7.151,135.179,7.785,133.91,7.951z M78.307,7.945l-1.927-2.914c0,0,4.853,0,5.048,0
			c0.196,0,0.358-0.132,0.358-0.304V2.962c0-0.17-0.163-0.29-0.359-0.29c-0.196,0-8.095,0.003-8.095,0.003
			c-0.164,0-0.299,0.136-0.299,0.317v1.223l2.494,3.775h-2.494v7.353c0,0.166,0.134,0.317,0.299,0.317h4.376
			c3.062,0,4.66-1.933,4.66-3.835c0-1.012-0.433-1.963-1.21-2.657C80.673,8.676,79.769,8.183,78.307,7.945z M77.71,13.29h-2.345
			v-2.944h2.345c1.598,0,2.33,0.77,2.33,1.48C80.04,12.535,79.308,13.29,77.71,13.29z"/>
	</g>
</g>
</svg>
